<svg xmlns="http://www.w3.org/2000/svg" width="918" height="918" style=""><rect id="backgroundrect" width="100%" height="100%" x="0" y="0" fill="none" stroke="none"/><g class="currentLayer" style=""><title>Layer 1</title><g id="svg_1" class="selected" fill="#000000" fill-opacity="1"><circle fill="#000000" cx="671.1300048828125" cy="165.32000732421875" r="45.31999969482422" id="svg_2" fill-opacity="1"/><circle fill="#000000" cx="683.510009765625" cy="284.2099914550781" r="38.369998931884766" id="svg_3" fill-opacity="1"/><circle fill="#000000" cx="784.1199951171875" cy="298.5799865722656" r="38.279998779296875" id="svg_4" fill-opacity="1"/><circle fill="#000000" cx="771.77001953125" cy="399.9700012207031" r="32.7400016784668" id="svg_5" fill-opacity="1"/><circle fill="#000000" cx="852.280029296875" cy="430.9599914550781" r="32.95000076293945" id="svg_6" fill-opacity="1"/><circle fill="#000000" cx="670.5700073242188" cy="386.1300048828125" r="33.540000915527344" id="svg_7" fill-opacity="1"/><circle fill="#000000" cx="641.3200073242188" cy="467.75" r="28.1299991607666" id="svg_8" fill-opacity="1"/><circle fill="#000000" cx="742.02001953125" cy="481.5199890136719" r="27.920000076293945" id="svg_9" fill-opacity="1"/><circle fill="#000000" cx="822.4000244140625" cy="512.3400268554688" r="28.170000076293945" id="svg_10" fill-opacity="1"/><circle fill="#000000" cx="782.530029296875" cy="574.47998046875" r="23.760000228881836" id="svg_11" fill-opacity="1"/><circle fill="#000000" cx="701.8400268554688" cy="543.3900146484375" r="24.280000686645508" id="svg_12" fill-opacity="1"/><circle fill="#000000" cx="601.2000122070312" cy="529.4400024414062" r="24.059999465942383" id="svg_13" fill-opacity="1"/><circle fill="#000000" cx="657" cy="586.8699951171875" r="20.969999313354492" id="svg_14" fill-opacity="1"/><circle fill="#000000" cx="737.6900024414062" cy="617.8499755859375" r="21.149999618530273" id="svg_15" fill-opacity="1"/><circle fill="#000000" cx="692.0800170898438" cy="645.239990234375" r="16.670000076293945" id="svg_16" fill-opacity="1"/><circle fill="#000000" cx="648.9299926757812" cy="659.2100219726562" r="15.149999618530273" id="svg_17" fill-opacity="1"/><circle fill="#000000" cx="611.3800048828125" cy="615.0700073242188" r="17.989999771118164" id="svg_18" fill-opacity="1"/><circle fill="#000000" cx="556.219970703125" cy="573.0999755859375" r="20.920000076293945" id="svg_19" fill-opacity="1"/><circle fill="#000000" cx="721.3599853515625" cy="801.219970703125" r="45.09000015258789" id="svg_20" fill-opacity="1"/><circle fill="#000000" cx="611.6400146484375" cy="753.4600219726562" r="37.61000061035156" id="svg_21" fill-opacity="1"/><circle fill="#000000" cx="549.1900024414062" cy="832.0700073242188" r="37.93000030517578" id="svg_22" fill-opacity="1"/><circle fill="#000000" cx="530.1900024414062" cy="691.219970703125" r="32.849998474121094" id="svg_23" fill-opacity="1"/><circle fill="#000000" cx="467.7699890136719" cy="771.3200073242188" r="32.77000045776367" id="svg_24" fill-opacity="1"/><circle fill="#000000" cx="400.69000244140625" cy="825.7899780273438" r="32.65999984741211" id="svg_25" fill-opacity="1"/><circle fill="#000000" cx="344.5299987792969" cy="759.4400024414062" r="27.84000015258789" id="svg_26" fill-opacity="1"/><circle fill="#000000" cx="411.82000732421875" cy="704.8400268554688" r="27.889999389648438" id="svg_27" fill-opacity="1"/><circle fill="#000000" cx="474.5899963378906" cy="624.7899780273438" r="27.920000076293945" id="svg_28" fill-opacity="1"/><circle fill="#000000" cx="378.3999938964844" cy="639.22998046875" r="24.15999984741211" id="svg_29" fill-opacity="1"/><circle fill="#000000" cx="311.44000244140625" cy="693.760009765625" r="23.959999084472656" id="svg_30" fill-opacity="1"/><circle fill="#000000" cx="295.94000244140625" cy="633.0599975585938" r="20.739999771118164" id="svg_31" fill-opacity="1"/><circle fill="#000000" cx="295.19000244140625" cy="579.8300170898438" r="17.790000915527344" id="svg_32" fill-opacity="1"/><circle fill="#000000" cx="304.3699951171875" cy="535.739990234375" r="15.140000343322754" id="svg_33" fill-opacity="1"/><circle fill="#000000" cx="362.29998779296875" cy="525.4000244140625" r="17.989999771118164" id="svg_34" fill-opacity="1"/><circle fill="#000000" cx="425.70001220703125" cy="498.3699951171875" r="20.959999084472656" id="svg_35" fill-opacity="1"/><circle fill="#000000" cx="440.9100036621094" cy="559.030029296875" r="23.850000381469727" id="svg_36" fill-opacity="1"/><circle fill="#000000" cx="363.1400146484375" cy="578.72998046875" r="20.780000686645508" id="svg_37" fill-opacity="1"/><circle fill="#000000" cx="145.2899932861328" cy="527.3099975585938" r="44.95000076293945" id="svg_38" fill-opacity="1"/><circle fill="#000000" cx="242.4600067138672" cy="456.6199951171875" r="38.5" id="svg_39" fill-opacity="1"/><circle fill="#000000" cx="204.36000061035156" cy="362.3299865722656" r="38.29999923706055" id="svg_40" fill-opacity="1"/><circle fill="#000000" cx="298.05999755859375" cy="322.5799865722656" r="32.83000183105469" id="svg_41" fill-opacity="1"/><circle fill="#000000" cx="336.4200134277344" cy="416.6300048828125" r="32.939998626708984" id="svg_42" fill-opacity="1"/><circle fill="#000000" cx="421.6700134277344" cy="401.55999755859375" r="28.049999237060547" id="svg_43" fill-opacity="1"/><circle fill="#000000" cx="495.3900146484375" cy="405.3800048828125" r="24.149999618530273" id="svg_44" fill-opacity="1"/><circle fill="#000000" cx="556.219970703125" cy="422.6199951171875" r="20.34000015258789" id="svg_45" fill-opacity="1"/><circle fill="#000000" cx="564.02001953125" cy="354.0799865722656" r="17.739999771118164" id="svg_46" fill-opacity="1"/><circle fill="#000000" cx="517.22998046875" cy="328.3699951171875" r="20.549999237060547" id="svg_47" fill-opacity="1"/><circle fill="#000000" cx="457.1199951171875" cy="311.17999267578125" r="24.020000457763672" id="svg_48" fill-opacity="1"/><circle fill="#000000" cx="383.6300048828125" cy="307.57000732421875" r="28.06999969482422" id="svg_49" fill-opacity="1"/><circle fill="#000000" cx="284.5199890136719" cy="237.08999633789062" r="31.84000015258789" id="svg_50" fill-opacity="1"/><circle fill="#000000" cx="369.70001220703125" cy="222.00999450683594" r="28.09000015258789" id="svg_51" fill-opacity="1"/><circle fill="#000000" cx="443.3999938964844" cy="225.8800048828125" r="24.219999313354492" id="svg_52" fill-opacity="1"/><circle fill="#000000" cx="503.79998779296875" cy="243.13999938964844" r="20.389999389648438" id="svg_53" fill-opacity="1"/><circle fill="#000000" cx="550.22998046875" cy="268.92999267578125" r="18.229999542236328" id="svg_54" fill-opacity="1"/><circle fill="#000000" cx="584.1500244140625" cy="299.2099914550781" r="15" id="svg_55" fill-opacity="1"/></g></g></svg>